# xmcd
#
# Track frame offsets: 
#        150
#        18740
#        48790
#        71470
#        93873
#        117628
#        154702
#        166695
#        181737
#
# Disc length: 2750 seconds
#
# Revision: 1
# Processed by: cddbd v1.5.2PL0 Copyright (c) Steve Scherf et al.
# Submitted via: ExactAudioCopy v0.95b3
#
DISCID=660abc09
DTITLE=Bernardo Sassetti - Indigo 2
DYEAR=2004
DGENRE=Jazz
TTITLE0=Musica Callada, Mov. I
TTITLE1=Historias de Sheherazade, Mov. I
TTITLE2=Historias de Sheherazade, Mov. II
TTITLE3=Historias de Sheherazade, Mov. III
TTITLE4=Pannonica
TTITLE5=Elegia
TTITLE6=Petit Pays
TTITLE7=Alizarin
TTITLE8=Jelly Dream
EXTD=YEAR: 2004
EXTT0=
EXTT1=
EXTT2=
EXTT3=
EXTT4=
EXTT5=
EXTT6=
EXTT7=
EXTT8=
PLAYORDER=
